<?xml version="1.0" standalone="no"?>
<!DOCTYPE svg PUBLIC "-//W3C//DTD SVG 1.1//EN" "http://www.w3.org/Graphics/SVG/1.1/DTD/svg11.dtd">
<svg width="100%" height="100%" viewBox="0 0 3000 2172" version="1.1" xmlns="http://www.w3.org/2000/svg" xmlns:xlink="http://www.w3.org/1999/xlink" xml:space="preserve" style="fill-rule:evenodd;clip-rule:evenodd;stroke-linejoin:round;stroke-miterlimit:1.41421;">
    <g transform="matrix(8.0964,0,0,8.0964,-3277.97,-1404.8)">
        <g transform="matrix(1.77492,0,0,1.77492,-960.607,3.20999)">
            <path d="M944.789,215.956C945.447,214.527 944.851,212.671 943.521,211.492C946.819,210.731 952.91,209.631 953.747,209.631C955.624,209.631 956.502,210.951 956.562,213.588C956.654,217.572 953.462,230.249 953.4,234.814C953.357,237.959 954.747,239.247 957.395,239.532C965.757,240.43 974.781,230.062 978.077,221.836C975.257,236.782 966.9,247.24 954.617,247.043C951.777,246.998 948.59,245.992 946.852,244.14C945.115,242.288 944.246,239.854 944.246,236.835C944.246,233.117 945.027,231.383 945.193,230.514C942.351,236.5 931.374,247.014 919.061,246.917C914.394,246.881 910.078,243.758 907.933,241.153C922.706,244.877 938.329,229.99 944.789,215.956ZM950.586,195.67L951.118,195.708C952.818,195.632 957.477,194.776 960.66,193.14C963.844,191.504 966.336,189.837 968.136,188.137C967.359,191.066 965.974,194.891 962.389,197.958C958.12,201.61 952.942,203.36 951.42,203.36C950.405,203.36 949.552,201.721 949.552,200.478C949.552,198.702 950.002,197.091 950.586,195.67Z" style="fill:rgb(28,152,185);"/>
        </g>
        <g transform="matrix(0.986051,0,0,1.19872,240.074,-54.7958)">
            <ellipse cx="332.885" cy="288.857" rx="165.761" ry="98.4" style="fill:rgb(150,209,144);"/>
            <clipPath id="_clip1">
                <ellipse cx="332.885" cy="288.857" rx="165.761" ry="98.4"/>
            </clipPath>
            <g clip-path="url(#_clip1)">
                <ellipse cx="364.734" cy="288.857" rx="121.915" ry="68.155" style="fill:white;"/>
            </g>
        </g>
        <g transform="matrix(2.10151,0,0,2.11318,-363.563,-773.274)">
            <path d="M425.129,565.263L425.129,481.154L468.446,481.154C476.478,481.154 482.617,481.842 486.863,483.219C491.108,484.596 494.532,487.149 497.132,490.878C499.733,494.608 501.034,498.386 501.034,503.741C501.034,508.407 500.039,513.197 498.05,516.582C496.061,519.967 493.327,522.711 489.846,524.815C487.628,526.153 484.587,527.263 480.724,528.142C483.822,529.175 489.225,531.942 495.297,540.879C499.602,547.217 507.861,565.263 507.861,565.263L480.307,565.263L465.808,539.559C464.049,536.232 458.852,531.126 453.529,531.126L451.234,531.126L451.234,565.263L425.129,565.263ZM451.234,515.233L462.651,515.233C466.912,515.233 470.212,514.603 472.347,512.46C473.882,510.92 474.929,509.367 474.929,506.57C474.929,503.854 474.068,501.77 472.347,500.316C470.626,498.863 467.394,498.136 462.651,498.136L451.234,498.136L451.234,515.233Z" style="fill:rgb(28,152,185);fill-rule:nonzero;"/>
        </g>
    </g>
</svg>
