<?xml version="1.0" standalone="no"?>
<!DOCTYPE svg PUBLIC "-//W3C//DTD SVG 1.1//EN" "http://www.w3.org/Graphics/SVG/1.1/DTD/svg11.dtd">
<svg width="100%" height="100%" viewBox="0 0 2945 617" version="1.1" xmlns="http://www.w3.org/2000/svg" xmlns:xlink="http://www.w3.org/1999/xlink" xml:space="preserve" style="fill-rule:evenodd;clip-rule:evenodd;stroke-linejoin:round;stroke-miterlimit:1.41421;">
    <g transform="matrix(1,0,0,1,-9.83054,-2379.79)">
        <g id="Layer1" transform="matrix(9.1139,0,0,9.1139,-2382.61,-1518.72)">
            <g transform="matrix(0.333545,0,0,0.333545,116.84,301.251)">
                <path d="M474.307,538.324L463.768,540.226C463.413,538.121 462.608,536.536 461.352,535.47C460.097,534.405 458.467,533.872 456.463,533.872C453.8,533.872 451.676,534.792 450.091,536.631C448.506,538.469 447.713,541.545 447.713,545.857C447.713,550.65 448.518,554.036 450.129,556.015C451.739,557.993 453.902,558.982 456.615,558.982C458.645,558.982 460.306,558.405 461.599,557.251C462.893,556.097 463.806,554.112 464.339,551.297L474.839,553.085C473.749,557.904 471.656,561.544 468.562,564.004C465.467,566.464 461.32,567.695 456.121,567.695C450.211,567.695 445.5,565.83 441.987,562.102C438.474,558.373 436.718,553.212 436.718,546.618C436.718,539.947 438.481,534.754 442.006,531.038C445.532,527.322 450.3,525.464 456.311,525.464C461.232,525.464 465.144,526.523 468.048,528.641C470.952,530.759 473.038,533.986 474.307,538.324Z" style="fill:rgb(28,152,185);fill-rule:nonzero;"/>
                <path d="M492.482,546.009C492.482,542.458 493.357,539.021 495.107,535.699C496.857,532.376 499.336,529.84 502.545,528.089C505.753,526.339 509.336,525.464 513.293,525.464C519.405,525.464 524.414,527.449 528.32,531.418C532.226,535.388 534.179,540.403 534.179,546.465C534.179,552.578 532.207,557.644 528.263,561.664C524.319,565.685 519.354,567.695 513.369,567.695C509.666,567.695 506.134,566.858 502.773,565.184C499.412,563.51 496.857,561.056 495.107,557.822C493.357,554.588 492.482,550.65 492.482,546.009ZM503.439,546.579C503.439,550.587 504.39,553.656 506.292,555.786C508.194,557.917 510.541,558.982 513.331,558.982C516.121,558.982 518.46,557.917 520.35,555.786C522.24,553.656 523.184,550.562 523.184,546.503C523.184,542.547 522.24,539.503 520.35,537.373C518.46,535.242 516.121,534.177 513.331,534.177C510.541,534.177 508.194,535.242 506.292,537.373C504.39,539.503 503.439,542.572 503.439,546.579Z" style="fill:rgb(28,152,185);fill-rule:nonzero;"/>
                <path d="M565.328,566.781L554.637,566.781L554.637,526.377L564.567,526.377L564.567,532.122C566.267,529.408 567.795,527.62 569.152,526.758C570.509,525.896 572.049,525.464 573.774,525.464C576.209,525.464 578.555,526.136 580.813,527.481L577.503,536.802C575.702,535.635 574.028,535.052 572.481,535.052C570.984,535.052 569.716,535.464 568.676,536.288C567.636,537.113 566.818,538.603 566.222,540.759C565.626,542.914 565.328,547.429 565.328,554.303L565.328,566.781Z" style="fill:rgb(28,152,185);fill-rule:nonzero;"/>
                <path d="M608.195,566.781L597.504,566.781L597.504,526.377L607.434,526.377L607.434,532.122C609.133,529.408 610.661,527.62 612.018,526.758C613.375,525.896 614.916,525.464 616.641,525.464C619.076,525.464 621.422,526.136 623.679,527.481L620.369,536.802C618.568,535.635 616.894,535.052 615.347,535.052C613.851,535.052 612.583,535.464 611.543,536.288C610.503,537.113 609.685,538.603 609.089,540.759C608.493,542.914 608.195,547.429 608.195,554.303L608.195,566.781Z" style="fill:rgb(28,152,185);fill-rule:nonzero;"/>
                <path d="M667.421,566.781L667.421,560.732C665.95,562.888 664.016,564.588 661.619,565.83C659.222,567.073 656.692,567.695 654.029,567.695C651.315,567.695 648.88,567.099 646.724,565.906C644.568,564.714 643.008,563.04 642.045,560.884C641.081,558.729 640.599,555.748 640.599,551.944L640.599,526.377L651.29,526.377L651.29,544.944C651.29,550.625 651.486,554.106 651.879,555.387C652.273,556.668 652.989,557.682 654.029,558.431C655.069,559.179 656.388,559.553 657.986,559.553C659.812,559.553 661.448,559.052 662.893,558.05C664.339,557.048 665.328,555.805 665.861,554.322C666.394,552.838 666.66,549.205 666.66,543.422L666.66,526.377L677.351,526.377L677.351,566.781L667.421,566.781Z" style="fill:rgb(28,152,185);fill-rule:nonzero;"/>
                <path d="M700.662,526.377L710.63,526.377L710.63,532.313C711.923,530.283 713.674,528.635 715.88,527.367C718.087,526.098 720.534,525.464 723.223,525.464C727.915,525.464 731.897,527.303 735.169,530.981C738.441,534.659 740.077,539.782 740.077,546.351C740.077,553.098 738.428,558.342 735.131,562.083C731.834,565.824 727.839,567.695 723.147,567.695C720.915,567.695 718.892,567.251 717.079,566.363C715.265,565.475 713.356,563.953 711.353,561.798L711.353,582.152L700.662,582.152L700.662,526.377ZM711.239,545.895C711.239,550.435 712.139,553.789 713.94,555.958C715.741,558.126 717.935,559.21 720.522,559.21C723.007,559.21 725.074,558.215 726.723,556.224C728.372,554.233 729.196,550.967 729.196,546.427C729.196,542.192 728.346,539.047 726.647,536.992C724.948,534.938 722.842,533.91 720.331,533.91C717.719,533.91 715.55,534.919 713.826,536.935C712.101,538.951 711.239,541.938 711.239,545.895Z" style="fill:rgb(28,152,185);fill-rule:nonzero;"/>
                <path d="M779.634,526.377L779.634,534.9L772.329,534.9L772.329,551.183C772.329,554.48 772.399,556.401 772.538,556.947C772.678,557.492 772.995,557.942 773.489,558.297C773.984,558.652 774.586,558.83 775.296,558.83C776.286,558.83 777.719,558.488 779.596,557.803L780.509,566.097C778.023,567.162 775.208,567.695 772.063,567.695C770.135,567.695 768.398,567.371 766.85,566.724C765.303,566.078 764.168,565.241 763.445,564.213C762.723,563.186 762.222,561.798 761.943,560.047C761.714,558.805 761.6,556.294 761.6,552.515L761.6,534.9L756.692,534.9L756.692,526.377L761.6,526.377L761.6,518.35L772.329,512.11L772.329,526.377L779.634,526.377Z" style="fill:rgb(28,152,185);fill-rule:nonzero;"/>
                <path d="M799.597,520.899L799.597,511.007L810.288,511.007L810.288,520.899L799.597,520.899ZM799.597,566.781L799.597,526.377L810.288,526.377L810.288,566.781L799.597,566.781Z" style="fill:rgb(28,152,185);fill-rule:nonzero;"/>
                <path d="M831.316,546.009C831.316,542.458 832.191,539.021 833.942,535.699C835.692,532.376 838.171,529.84 841.379,528.089C844.588,526.339 848.17,525.464 852.127,525.464C858.24,525.464 863.249,527.449 867.155,531.418C871.061,535.388 873.014,540.403 873.014,546.465C873.014,552.578 871.042,557.644 867.098,561.664C863.154,565.685 858.189,567.695 852.203,567.695C848.5,567.695 844.968,566.858 841.608,565.184C838.247,563.51 835.692,561.056 833.942,557.822C832.191,554.588 831.316,550.65 831.316,546.009ZM842.273,546.579C842.273,550.587 843.225,553.656 845.127,555.786C847.029,557.917 849.375,558.982 852.165,558.982C854.955,558.982 857.295,557.917 859.185,555.786C861.074,553.656 862.019,550.562 862.019,546.503C862.019,542.547 861.074,539.503 859.185,537.373C857.295,535.242 854.955,534.177 852.165,534.177C849.375,534.177 847.029,535.242 845.127,537.373C843.225,539.503 842.273,542.572 842.273,546.579Z" style="fill:rgb(28,152,185);fill-rule:nonzero;"/>
                <path d="M930.68,566.781L919.99,566.781L919.99,546.161C919.99,541.798 919.761,538.977 919.305,537.696C918.848,536.415 918.106,535.42 917.079,534.709C916.052,533.999 914.815,533.644 913.37,533.644C911.518,533.644 909.857,534.151 908.386,535.166C906.915,536.18 905.906,537.525 905.361,539.199C904.816,540.873 904.543,543.967 904.543,548.482L904.543,566.781L893.852,566.781L893.852,526.377L903.782,526.377L903.782,532.313C907.308,527.747 911.746,525.464 917.098,525.464C919.457,525.464 921.613,525.889 923.566,526.739C925.519,527.589 926.996,528.673 927.998,529.992C929,531.311 929.697,532.807 930.091,534.481C930.484,536.155 930.68,538.552 930.68,541.672L930.68,566.781Z" style="fill:rgb(28,152,185);fill-rule:nonzero;"/>
                <path d="M983.581,526.377L989.516,526.377L989.516,523.334C989.516,519.935 989.877,517.399 990.6,515.725C991.323,514.051 992.654,512.687 994.595,511.635C996.535,510.582 998.989,510.056 1001.96,510.056C1005,510.056 1007.98,510.513 1010.9,511.426L1009.45,518.883C1007.75,518.477 1006.12,518.274 1004.54,518.274C1003,518.274 1001.89,518.635 1001.21,519.358C1000.54,520.081 1000.21,521.47 1000.21,523.524L1000.21,526.377L1008.2,526.377L1008.2,534.785L1000.21,534.785L1000.21,566.781L989.516,566.781L989.516,534.785L983.581,534.785L983.581,526.377Z" style="fill:rgb(28,152,185);fill-rule:nonzero;"/>
                <path d="M1036.99,566.781L1026.3,566.781L1026.3,526.377L1036.22,526.377L1036.22,532.122C1037.92,529.408 1039.45,527.62 1040.81,526.758C1042.17,525.896 1043.71,525.464 1045.43,525.464C1047.87,525.464 1050.21,526.136 1052.47,527.481L1049.16,536.802C1047.36,535.635 1045.68,535.052 1044.14,535.052C1042.64,535.052 1041.37,535.464 1040.33,536.288C1039.29,537.113 1038.48,538.603 1037.88,540.759C1037.28,542.914 1036.99,547.429 1036.99,554.303L1036.99,566.781Z" style="fill:rgb(28,152,185);fill-rule:nonzero;"/>
                <path d="M1093.02,553.922L1103.67,555.71C1102.3,559.616 1100.14,562.59 1097.18,564.632C1094.23,566.674 1090.53,567.695 1086.09,567.695C1079.07,567.695 1073.87,565.399 1070.49,560.808C1067.83,557.131 1066.5,552.489 1066.5,546.884C1066.5,540.188 1068.25,534.944 1071.75,531.152C1075.25,527.36 1079.67,525.464 1085.03,525.464C1091.04,525.464 1095.78,527.449 1099.26,531.418C1102.73,535.388 1104.39,541.469 1104.24,549.661L1077.45,549.661C1077.53,552.832 1078.39,555.298 1080.04,557.061C1081.69,558.824 1083.75,559.705 1086.21,559.705C1087.88,559.705 1089.29,559.249 1090.43,558.335C1091.57,557.422 1092.43,555.951 1093.02,553.922ZM1093.62,543.117C1093.55,540.023 1092.75,537.671 1091.23,536.06C1089.71,534.449 1087.86,533.644 1085.67,533.644C1083.34,533.644 1081.41,534.494 1079.89,536.193C1078.37,537.892 1077.62,540.201 1077.65,543.117L1093.62,543.117Z" style="fill:rgb(28,152,185);fill-rule:nonzero;"/>
                <path d="M1148.89,553.922L1159.55,555.71C1158.18,559.616 1156.02,562.59 1153.06,564.632C1150.11,566.674 1146.41,567.695 1141.97,567.695C1134.94,567.695 1129.75,565.399 1126.37,560.808C1123.71,557.131 1122.38,552.489 1122.38,546.884C1122.38,540.188 1124.13,534.944 1127.63,531.152C1131.13,527.36 1135.55,525.464 1140.9,525.464C1146.92,525.464 1151.66,527.449 1155.13,531.418C1158.61,535.388 1160.27,541.469 1160.12,549.661L1133.33,549.661C1133.41,552.832 1134.27,555.298 1135.92,557.061C1137.57,558.824 1139.62,559.705 1142.08,559.705C1143.76,559.705 1145.17,559.249 1146.31,558.335C1147.45,557.422 1148.31,555.951 1148.89,553.922ZM1149.5,543.117C1149.43,540.023 1148.63,537.671 1147.11,536.06C1145.58,534.449 1143.73,533.644 1141.55,533.644C1139.22,533.644 1137.29,534.494 1135.77,536.193C1134.25,537.892 1133.5,540.201 1133.52,543.117L1149.5,543.117Z" style="fill:rgb(28,152,185);fill-rule:nonzero;"/>
                <path d="M1252.62,566.781L1242.69,566.781L1242.69,560.846C1241.04,563.155 1239.1,564.873 1236.85,566.002C1234.61,567.13 1232.35,567.695 1230.06,567.695C1225.42,567.695 1221.44,565.824 1218.13,562.083C1214.83,558.342 1213.17,553.123 1213.17,546.427C1213.17,539.579 1214.78,534.373 1218,530.81C1221.22,527.246 1225.29,525.464 1230.21,525.464C1234.73,525.464 1238.63,527.341 1241.93,531.095L1241.93,511.007L1252.62,511.007L1252.62,566.781ZM1224.09,545.704C1224.09,550.016 1224.68,553.136 1225.88,555.064C1227.6,557.854 1230.01,559.249 1233.11,559.249C1235.57,559.249 1237.66,558.202 1239.38,556.11C1241.11,554.017 1241.97,550.891 1241.97,546.732C1241.97,542.09 1241.13,538.748 1239.46,536.707C1237.79,534.665 1235.64,533.644 1233.03,533.644C1230.49,533.644 1228.37,534.652 1226.66,536.669C1224.94,538.685 1224.09,541.697 1224.09,545.704Z" style="fill:rgb(28,152,185);fill-rule:nonzero;"/>
                <path d="M1283.69,538.704L1273.99,536.954C1275.09,533.048 1276.96,530.157 1279.62,528.28C1282.29,526.403 1286.24,525.464 1291.5,525.464C1296.26,525.464 1299.81,526.029 1302.15,527.157C1304.48,528.286 1306.12,529.719 1307.07,531.456C1308.03,533.194 1308.5,536.383 1308.5,541.025L1308.39,553.504C1308.39,557.055 1308.56,559.673 1308.9,561.36C1309.24,563.047 1309.88,564.854 1310.82,566.781L1300.25,566.781C1299.97,566.071 1299.62,565.019 1299.22,563.624C1299.04,562.99 1298.91,562.571 1298.84,562.368C1297.01,564.144 1295.06,565.475 1292.98,566.363C1290.9,567.251 1288.68,567.695 1286.32,567.695C1282.16,567.695 1278.88,566.566 1276.49,564.309C1274.09,562.051 1272.89,559.198 1272.89,555.748C1272.89,553.466 1273.44,551.43 1274.53,549.642C1275.62,547.854 1277.14,546.484 1279.11,545.533C1281.08,544.582 1283.91,543.751 1287.61,543.041C1292.61,542.103 1296.07,541.228 1298,540.416L1298,539.351C1298,537.296 1297.49,535.832 1296.48,534.957C1295.46,534.082 1293.55,533.644 1290.73,533.644C1288.83,533.644 1287.35,534.018 1286.28,534.766C1285.22,535.515 1284.36,536.827 1283.69,538.704ZM1298,547.378C1296.63,547.835 1294.46,548.38 1291.5,549.014C1288.53,549.648 1286.59,550.27 1285.67,550.879C1284.28,551.868 1283.58,553.123 1283.58,554.645C1283.58,556.142 1284.14,557.435 1285.26,558.526C1286.37,559.616 1287.79,560.162 1289.52,560.162C1291.44,560.162 1293.28,559.528 1295.03,558.259C1296.33,557.296 1297.18,556.116 1297.58,554.721C1297.86,553.808 1298,552.071 1298,549.509L1298,547.378Z" style="fill:rgb(28,152,185);fill-rule:nonzero;"/>
                <path d="M1350.11,526.377L1350.11,534.9L1342.81,534.9L1342.81,551.183C1342.81,554.48 1342.88,556.401 1343.02,556.947C1343.16,557.492 1343.47,557.942 1343.97,558.297C1344.46,558.652 1345.07,558.83 1345.78,558.83C1346.76,558.83 1348.2,558.488 1350.07,557.803L1350.99,566.097C1348.5,567.162 1345.69,567.695 1342.54,567.695C1340.61,567.695 1338.88,567.371 1337.33,566.724C1335.78,566.078 1334.65,565.241 1333.92,564.213C1333.2,563.186 1332.7,561.798 1332.42,560.047C1332.19,558.805 1332.08,556.294 1332.08,552.515L1332.08,534.9L1327.17,534.9L1327.17,526.377L1332.08,526.377L1332.08,518.35L1342.81,512.11L1342.81,526.377L1350.11,526.377Z" style="fill:rgb(28,152,185);fill-rule:nonzero;"/>
                <path d="M1378.07,538.704L1368.36,536.954C1369.45,533.048 1371.33,530.157 1373.99,528.28C1376.66,526.403 1380.61,525.464 1385.86,525.464C1390.63,525.464 1394.18,526.029 1396.52,527.157C1398.85,528.286 1400.49,529.719 1401.44,531.456C1402.39,533.194 1402.87,536.383 1402.87,541.025L1402.76,553.504C1402.76,557.055 1402.93,559.673 1403.27,561.36C1403.61,563.047 1404.25,564.854 1405.19,566.781L1394.62,566.781C1394.34,566.071 1393.99,565.019 1393.59,563.624C1393.41,562.99 1393.28,562.571 1393.21,562.368C1391.38,564.144 1389.43,565.475 1387.35,566.363C1385.27,567.251 1383.05,567.695 1380.69,567.695C1376.53,567.695 1373.25,566.566 1370.86,564.309C1368.46,562.051 1367.26,559.198 1367.26,555.748C1367.26,553.466 1367.81,551.43 1368.9,549.642C1369.99,547.854 1371.52,546.484 1373.48,545.533C1375.45,544.582 1378.28,543.751 1381.98,543.041C1386.98,542.103 1390.44,541.228 1392.37,540.416L1392.37,539.351C1392.37,537.296 1391.86,535.832 1390.85,534.957C1389.83,534.082 1387.92,533.644 1385.1,533.644C1383.2,533.644 1381.72,534.018 1380.65,534.766C1379.59,535.515 1378.72,536.827 1378.07,538.704ZM1392.37,547.378C1391,547.835 1388.83,548.38 1385.86,549.014C1382.9,549.648 1380.96,550.27 1380.04,550.879C1378.65,551.868 1377.95,553.123 1377.95,554.645C1377.95,556.142 1378.51,557.435 1379.62,558.526C1380.74,559.616 1382.16,560.162 1383.89,560.162C1385.81,560.162 1387.65,559.528 1389.4,558.259C1390.7,557.296 1391.55,556.116 1391.95,554.721C1392.23,553.808 1392.37,552.071 1392.37,549.509L1392.37,547.378Z" style="fill:rgb(28,152,185);fill-rule:nonzero;"/>
            </g>
            <g transform="matrix(0.550393,0,0,0.550393,75.0301,190.335)">
                <path d="M343.491,446.734L357.986,446.734L357.986,453.354C359.381,450.488 360.821,448.516 362.305,447.438C363.788,446.36 365.621,445.821 367.802,445.821C370.085,445.821 372.583,446.531 375.297,447.951L370.503,458.984C368.677,458.223 367.231,457.843 366.166,457.843C364.137,457.843 362.565,458.68 361.449,460.354C359.851,462.713 359.052,467.126 359.052,473.594L359.052,487.138L343.491,487.138L343.491,446.734Z" style="fill:white;fill-rule:nonzero;"/>
                <path d="M385.714,431.364L401.198,431.364L401.198,451.908C403.303,449.727 405.396,448.167 407.476,447.228C409.555,446.29 412.016,445.821 414.856,445.821C419.067,445.821 422.383,447.102 424.805,449.663C427.227,452.225 428.439,456.156 428.439,461.457L428.439,487.138L412.878,487.138L412.878,464.919C412.878,462.383 412.409,460.589 411.47,459.536C410.532,458.483 409.213,457.957 407.514,457.957C405.637,457.957 404.115,458.667 402.948,460.088C401.782,461.508 401.198,464.057 401.198,467.735L401.198,487.138L385.714,487.138L385.714,431.364Z" style="fill:white;fill-rule:nonzero;"/>
                <path d="M443.573,467.05C443.573,460.887 445.653,455.808 449.812,451.813C453.972,447.818 459.59,445.821 466.666,445.821C474.757,445.821 480.87,448.167 485.004,452.859C488.327,456.638 489.988,461.292 489.988,466.822C489.988,473.036 487.927,478.127 483.806,482.097C479.684,486.066 473.984,488.051 466.704,488.051C460.211,488.051 454.961,486.402 450.954,483.105C446.033,479.022 443.573,473.67 443.573,467.05ZM459.095,467.012C459.095,470.614 459.825,473.277 461.283,475.001C462.741,476.726 464.574,477.588 466.781,477.588C469.013,477.588 470.845,476.739 472.278,475.039C473.711,473.34 474.428,470.614 474.428,466.86C474.428,463.36 473.705,460.753 472.259,459.041C470.813,457.329 469.025,456.473 466.895,456.473C464.637,456.473 462.773,457.342 461.302,459.079C459.831,460.817 459.095,463.461 459.095,467.012Z" style="fill:white;fill-rule:nonzero;"/>
                <path d="M547.771,431.364L547.771,487.138L533.276,487.138L533.276,481.165C531.247,483.701 529.395,485.413 527.721,486.301C525.489,487.468 523.004,488.051 520.265,488.051C514.761,488.051 510.557,485.958 507.653,481.773C504.748,477.588 503.296,472.503 503.296,466.517C503.296,459.821 504.901,454.698 508.109,451.147C511.318,447.596 515.395,445.821 520.341,445.821C522.75,445.821 524.938,446.227 526.903,447.038C528.869,447.85 530.613,449.067 532.135,450.69L532.135,431.364L547.771,431.364ZM532.249,466.822C532.249,463.651 531.577,461.286 530.232,459.726C528.888,458.166 527.189,457.386 525.134,457.386C523.334,457.386 521.824,458.135 520.607,459.631C519.39,461.128 518.781,463.639 518.781,467.164C518.781,470.461 519.409,472.877 520.664,474.412C521.92,475.946 523.473,476.713 525.325,476.713C527.303,476.713 528.952,475.94 530.27,474.393C531.589,472.846 532.249,470.322 532.249,466.822Z" style="fill:white;fill-rule:nonzero;"/>
                <path d="M560.509,446.734L576.868,446.734L585.2,473.632L592.923,446.734L608.18,446.734L592.163,489.915C590.336,494.836 588.472,498.158 586.57,499.883C583.881,502.318 579.785,503.535 574.281,503.535C572.049,503.535 568.6,503.231 563.933,502.622L562.715,491.817C564.947,492.528 567.433,492.883 570.172,492.883C571.999,492.883 573.476,492.464 574.605,491.627C575.733,490.79 576.691,489.294 577.477,487.138L560.509,446.734Z" style="fill:white;fill-rule:nonzero;"/>
                <path d="M621.64,487.138L621.64,431.364L650.364,431.364C655.69,431.364 659.761,431.82 662.577,432.733C665.392,433.646 667.662,435.339 669.387,437.812C671.111,440.285 671.974,443.297 671.974,446.848C671.974,449.942 671.314,452.612 669.995,454.856C668.677,457.101 666.863,458.921 664.555,460.316C663.084,461.204 661.068,461.939 658.506,462.523C660.56,463.207 662.057,463.892 662.995,464.577C663.629,465.034 664.549,466.01 665.753,467.506C666.958,469.003 667.763,470.157 668.169,470.969L676.501,487.138L657.022,487.138L647.815,470.094C646.648,467.887 645.608,466.454 644.695,465.794C643.453,464.932 642.045,464.501 640.472,464.501L638.951,464.501L638.951,487.138L621.64,487.138ZM638.951,453.962L646.217,453.962C647.003,453.962 648.525,453.709 650.783,453.201C651.924,452.973 652.856,452.39 653.579,451.451C654.302,450.513 654.663,449.435 654.663,448.218C654.663,446.417 654.093,445.034 652.951,444.071C651.81,443.107 649.667,442.625 646.522,442.625L638.951,442.625L638.951,453.962Z" style="fill:white;fill-rule:nonzero;"/>
                <path d="M686.043,475.953L701.413,474.507C702.047,476.333 702.935,477.639 704.076,478.425C705.218,479.212 706.74,479.605 708.642,479.605C710.722,479.605 712.332,479.161 713.474,478.273C714.361,477.614 714.805,476.79 714.805,475.8C714.805,474.684 714.222,473.822 713.055,473.213C712.218,472.782 709.999,472.249 706.397,471.615C701.02,470.677 697.285,469.808 695.193,469.009C693.1,468.21 691.338,466.86 689.905,464.957C688.472,463.055 687.755,460.887 687.755,458.452C687.755,455.789 688.529,453.493 690.076,451.566C691.623,449.638 693.753,448.199 696.467,447.247C699.181,446.296 702.821,445.821 707.386,445.821C712.205,445.821 715.763,446.188 718.058,446.924C720.353,447.66 722.268,448.801 723.803,450.348C725.337,451.895 726.612,453.988 727.626,456.626L712.941,458.071C712.56,456.778 711.926,455.827 711.039,455.218C709.821,454.406 708.35,454 706.625,454C704.875,454 703.601,454.311 702.802,454.933C702.003,455.554 701.603,456.309 701.603,457.196C701.603,458.185 702.111,458.934 703.125,459.441C704.14,459.948 706.346,460.405 709.745,460.811C714.894,461.394 718.724,462.206 721.235,463.245C723.746,464.285 725.667,465.769 726.999,467.697C728.33,469.624 728.996,471.742 728.996,474.05C728.996,476.384 728.292,478.654 726.885,480.86C725.477,483.067 723.258,484.823 720.227,486.13C717.196,487.436 713.068,488.089 707.843,488.089C700.462,488.089 695.206,487.036 692.073,484.931C688.941,482.826 686.931,479.833 686.043,475.953Z" style="fill:white;fill-rule:nonzero;"/>
                <path d="M762.849,431.364L762.849,446.734L771.371,446.734L771.371,458.033L762.849,458.033L762.849,472.376C762.849,474.101 763.014,475.242 763.343,475.8C763.851,476.663 764.738,477.094 766.006,477.094C767.148,477.094 768.746,476.764 770.8,476.105L771.942,486.795C768.112,487.632 764.535,488.051 761.213,488.051C757.358,488.051 754.517,487.556 752.691,486.567C750.864,485.578 749.514,484.075 748.639,482.059C747.764,480.042 747.326,476.777 747.326,472.262L747.326,458.033L741.619,458.033L741.619,446.734L747.326,446.734L747.326,439.315L762.849,431.364Z" style="fill:white;fill-rule:nonzero;"/>
                <path d="M800.658,459.821L785.858,458.261C786.416,455.674 787.222,453.639 788.274,452.155C789.327,450.671 790.842,449.384 792.821,448.294C794.241,447.507 796.194,446.899 798.68,446.467C801.165,446.036 803.854,445.821 806.745,445.821C811.387,445.821 815.115,446.081 817.931,446.601C820.746,447.121 823.092,448.205 824.969,449.853C826.288,450.995 827.328,452.612 828.089,454.704C828.85,456.797 829.23,458.794 829.23,460.696L829.23,478.54C829.23,480.442 829.351,481.932 829.591,483.01C829.832,484.088 830.359,485.464 831.17,487.138L816.637,487.138C816.054,486.098 815.673,485.305 815.496,484.76C815.318,484.215 815.141,483.359 814.963,482.192C812.934,484.145 810.918,485.54 808.914,486.377C806.175,487.493 802.992,488.051 799.365,488.051C794.545,488.051 790.887,486.935 788.388,484.703C785.89,482.471 784.641,479.719 784.641,476.447C784.641,473.378 785.541,470.854 787.342,468.876C789.143,466.898 792.466,465.427 797.31,464.463C803.118,463.296 806.885,462.478 808.61,462.009C810.334,461.54 812.16,460.925 814.088,460.164C814.088,458.261 813.695,456.93 812.909,456.169C812.122,455.408 810.74,455.028 808.762,455.028C806.225,455.028 804.323,455.433 803.055,456.245C802.066,456.879 801.267,458.071 800.658,459.821ZM814.088,467.963C811.958,468.724 809.738,469.396 807.43,469.979C804.285,470.816 802.294,471.641 801.457,472.452C800.595,473.289 800.163,474.241 800.163,475.306C800.163,476.523 800.588,477.519 801.438,478.292C802.288,479.066 803.537,479.453 805.185,479.453C806.91,479.453 808.514,479.034 809.998,478.197C811.482,477.36 812.535,476.339 813.156,475.135C813.777,473.93 814.088,472.364 814.088,470.436L814.088,467.963Z" style="fill:white;fill-rule:nonzero;"/>
                <path d="M863.653,431.364L863.653,446.734L872.176,446.734L872.176,458.033L863.653,458.033L863.653,472.376C863.653,474.101 863.818,475.242 864.148,475.8C864.655,476.663 865.543,477.094 866.811,477.094C867.953,477.094 869.55,476.764 871.605,476.105L872.746,486.795C868.916,487.632 865.34,488.051 862.017,488.051C858.162,488.051 855.321,487.556 853.495,486.567C851.669,485.578 850.319,484.075 849.443,482.059C848.568,480.042 848.131,476.777 848.131,472.262L848.131,458.033L842.424,458.033L842.424,446.734L848.131,446.734L848.131,439.315L863.653,431.364Z" style="fill:white;fill-rule:nonzero;"/>
                <path d="M884.609,475.953L899.979,474.507C900.613,476.333 901.501,477.639 902.642,478.425C903.784,479.212 905.305,479.605 907.208,479.605C909.287,479.605 910.898,479.161 912.039,478.273C912.927,477.614 913.371,476.79 913.371,475.8C913.371,474.684 912.788,473.822 911.621,473.213C910.784,472.782 908.565,472.249 904.963,471.615C899.586,470.677 895.851,469.808 893.759,469.009C891.666,468.21 889.903,466.86 888.47,464.957C887.037,463.055 886.321,460.887 886.321,458.452C886.321,455.789 887.094,453.493 888.642,451.566C890.189,449.638 892.319,448.199 895.033,447.247C897.747,446.296 901.387,445.821 905.952,445.821C910.771,445.821 914.328,446.188 916.624,446.924C918.919,447.66 920.834,448.801 922.369,450.348C923.903,451.895 925.178,453.988 926.192,456.626L911.507,458.071C911.126,456.778 910.492,455.827 909.604,455.218C908.387,454.406 906.916,454 905.191,454C903.441,454 902.167,454.311 901.368,454.933C900.569,455.554 900.169,456.309 900.169,457.196C900.169,458.185 900.676,458.934 901.691,459.441C902.706,459.948 904.912,460.405 908.311,460.811C913.46,461.394 917.29,462.206 919.801,463.245C922.312,464.285 924.233,465.769 925.564,467.697C926.896,469.624 927.562,471.742 927.562,474.05C927.562,476.384 926.858,478.654 925.45,480.86C924.043,483.067 921.823,484.823 918.792,486.13C915.761,487.436 911.634,488.089 906.409,488.089C899.028,488.089 893.771,487.036 890.639,484.931C887.506,482.826 885.496,479.833 884.609,475.953Z" style="fill:white;fill-rule:nonzero;"/>
            </g>
        </g>
    </g>
</svg>
